<mxfile host="app.diagrams.net" modified="2024-04-21T14:32:00.432Z" agent="Mozilla/5.0 (Windows NT 10.0; Win64; x64) AppleWebKit/537.36 (KHTML, like Gecko) Chrome/121.0.0.0 Safari/537.36 OPR/107.0.0.0" etag="3RsFk-GOm2SoYhVj_QxS" version="24.2.7" type="device">
  <diagram name="Page-1" id="50r2VC3MCaacwpAsEvA1">
    <mxGraphModel dx="3383" dy="1435" grid="1" gridSize="10" guides="1" tooltips="1" connect="1" arrows="1" fold="1" page="1" pageScale="1" pageWidth="850" pageHeight="1100" math="0" shadow="0">
      <root>
        <mxCell id="0" />
        <mxCell id="1" parent="0" />
        <mxCell id="f8OYZhYVLo2xJbFIZ8Po-1" value="AsteController" style="swimlane;fontStyle=1;align=center;verticalAlign=top;childLayout=stackLayout;horizontal=1;startSize=26;horizontalStack=0;resizeParent=1;resizeParentMax=0;resizeLast=0;collapsible=1;marginBottom=0;whiteSpace=wrap;html=1;" vertex="1" parent="1">
          <mxGeometry x="280" y="300" width="340" height="270" as="geometry" />
        </mxCell>
        <mxCell id="f8OYZhYVLo2xJbFIZ8Po-2" value="- avatar : ImageView&lt;div&gt;&lt;br&gt;&lt;/div&gt;" style="text;strokeColor=none;fillColor=none;align=left;verticalAlign=top;spacingLeft=4;spacingRight=4;overflow=hidden;rotatable=0;points=[[0,0.5],[1,0.5]];portConstraint=eastwest;whiteSpace=wrap;html=1;" vertex="1" parent="f8OYZhYVLo2xJbFIZ8Po-1">
          <mxGeometry y="26" width="340" height="134" as="geometry" />
        </mxCell>
        <mxCell id="f8OYZhYVLo2xJbFIZ8Po-3" value="" style="line;strokeWidth=1;fillColor=none;align=left;verticalAlign=middle;spacingTop=-1;spacingLeft=3;spacingRight=3;rotatable=0;labelPosition=right;points=[];portConstraint=eastwest;strokeColor=inherit;" vertex="1" parent="f8OYZhYVLo2xJbFIZ8Po-1">
          <mxGeometry y="160" width="340" height="8" as="geometry" />
        </mxCell>
        <mxCell id="f8OYZhYVLo2xJbFIZ8Po-4" value="+ participate()&lt;div&gt;+ profile()&lt;/div&gt;&lt;div&gt;+ logout()&lt;/div&gt;" style="text;strokeColor=none;fillColor=none;align=left;verticalAlign=top;spacingLeft=4;spacingRight=4;overflow=hidden;rotatable=0;points=[[0,0.5],[1,0.5]];portConstraint=eastwest;whiteSpace=wrap;html=1;" vertex="1" parent="f8OYZhYVLo2xJbFIZ8Po-1">
          <mxGeometry y="168" width="340" height="102" as="geometry" />
        </mxCell>
        <mxCell id="f8OYZhYVLo2xJbFIZ8Po-5" value="LoginController" style="swimlane;fontStyle=1;align=center;verticalAlign=top;childLayout=stackLayout;horizontal=1;startSize=26;horizontalStack=0;resizeParent=1;resizeParentMax=0;resizeLast=0;collapsible=1;marginBottom=0;whiteSpace=wrap;html=1;" vertex="1" parent="1">
          <mxGeometry x="-440" y="300" width="310" height="270" as="geometry" />
        </mxCell>
        <mxCell id="f8OYZhYVLo2xJbFIZ8Po-6" value="- enterB : Button&lt;div&gt;- registerB : Button&lt;/div&gt;&lt;div&gt;- userField : Textfield&lt;/div&gt;&lt;div&gt;- passField : Password Field&lt;/div&gt;&lt;div&gt;- title : Text&lt;/div&gt;&lt;div&gt;- userText : Text&lt;/div&gt;&lt;div&gt;- passText: Text&lt;/div&gt;&lt;div&gt;&lt;br&gt;&lt;/div&gt;" style="text;strokeColor=none;fillColor=none;align=left;verticalAlign=top;spacingLeft=4;spacingRight=4;overflow=hidden;rotatable=0;points=[[0,0.5],[1,0.5]];portConstraint=eastwest;whiteSpace=wrap;html=1;" vertex="1" parent="f8OYZhYVLo2xJbFIZ8Po-5">
          <mxGeometry y="26" width="310" height="144" as="geometry" />
        </mxCell>
        <mxCell id="f8OYZhYVLo2xJbFIZ8Po-7" value="" style="line;strokeWidth=1;fillColor=none;align=left;verticalAlign=middle;spacingTop=-1;spacingLeft=3;spacingRight=3;rotatable=0;labelPosition=right;points=[];portConstraint=eastwest;strokeColor=inherit;" vertex="1" parent="f8OYZhYVLo2xJbFIZ8Po-5">
          <mxGeometry y="170" width="310" height="8" as="geometry" />
        </mxCell>
        <mxCell id="f8OYZhYVLo2xJbFIZ8Po-8" value="+login()&lt;div&gt;+Register()&lt;br&gt;+Initialize()&lt;/div&gt;" style="text;strokeColor=none;fillColor=none;align=left;verticalAlign=top;spacingLeft=4;spacingRight=4;overflow=hidden;rotatable=0;points=[[0,0.5],[1,0.5]];portConstraint=eastwest;whiteSpace=wrap;html=1;" vertex="1" parent="f8OYZhYVLo2xJbFIZ8Po-5">
          <mxGeometry y="178" width="310" height="92" as="geometry" />
        </mxCell>
        <mxCell id="f8OYZhYVLo2xJbFIZ8Po-9" value="RegisterController" style="swimlane;fontStyle=1;align=center;verticalAlign=top;childLayout=stackLayout;horizontal=1;startSize=26;horizontalStack=0;resizeParent=1;resizeParentMax=0;resizeLast=0;collapsible=1;marginBottom=0;whiteSpace=wrap;html=1;" vertex="1" parent="1">
          <mxGeometry x="1130" y="310" width="380" height="430" as="geometry" />
        </mxCell>
        <mxCell id="f8OYZhYVLo2xJbFIZ8Po-10" value="- registerB : Button&lt;br&gt;&lt;br&gt;- backB : Button&lt;br&gt;&lt;br&gt;- nomeField : TextField&lt;br&gt;&lt;br&gt;- cognField : TextField&lt;br&gt;&lt;br&gt;- dateField : DatePicker&lt;br&gt;&lt;br&gt;- cityField : TextField&lt;br&gt;&lt;br&gt;- capField : TextField&lt;br&gt;&lt;br&gt;- emailField : TextField&lt;br&gt;&lt;br&gt;- passwordField : PasswordField&lt;div&gt;&lt;br&gt;&lt;/div&gt;&lt;div&gt;-ibanField : TextField&lt;/div&gt;" style="text;strokeColor=none;fillColor=none;align=left;verticalAlign=top;spacingLeft=4;spacingRight=4;overflow=hidden;rotatable=0;points=[[0,0.5],[1,0.5]];portConstraint=eastwest;whiteSpace=wrap;html=1;" vertex="1" parent="f8OYZhYVLo2xJbFIZ8Po-9">
          <mxGeometry y="26" width="380" height="294" as="geometry" />
        </mxCell>
        <mxCell id="f8OYZhYVLo2xJbFIZ8Po-11" value="" style="line;strokeWidth=1;fillColor=none;align=left;verticalAlign=middle;spacingTop=-1;spacingLeft=3;spacingRight=3;rotatable=0;labelPosition=right;points=[];portConstraint=eastwest;strokeColor=inherit;" vertex="1" parent="f8OYZhYVLo2xJbFIZ8Po-9">
          <mxGeometry y="320" width="380" height="18" as="geometry" />
        </mxCell>
        <mxCell id="f8OYZhYVLo2xJbFIZ8Po-12" value="+registration()&lt;br&gt;+initialize()" style="text;strokeColor=none;fillColor=none;align=left;verticalAlign=top;spacingLeft=4;spacingRight=4;overflow=hidden;rotatable=0;points=[[0,0.5],[1,0.5]];portConstraint=eastwest;whiteSpace=wrap;html=1;" vertex="1" parent="f8OYZhYVLo2xJbFIZ8Po-9">
          <mxGeometry y="338" width="380" height="92" as="geometry" />
        </mxCell>
        <mxCell id="f8OYZhYVLo2xJbFIZ8Po-13" style="edgeStyle=none;rounded=0;orthogonalLoop=1;jettySize=auto;html=1;dashed=1;strokeColor=default;align=center;verticalAlign=middle;fontFamily=Helvetica;fontSize=11;fontColor=default;labelBackgroundColor=default;endArrow=open;startArrow=open;startFill=0;endFill=0;" edge="1" parent="1" source="f8OYZhYVLo2xJbFIZ8Po-14" target="f8OYZhYVLo2xJbFIZ8Po-1">
          <mxGeometry relative="1" as="geometry" />
        </mxCell>
        <mxCell id="f8OYZhYVLo2xJbFIZ8Po-14" value="ProfileController" style="swimlane;fontStyle=1;align=center;verticalAlign=top;childLayout=stackLayout;horizontal=1;startSize=26;horizontalStack=0;resizeParent=1;resizeParentMax=0;resizeLast=0;collapsible=1;marginBottom=0;whiteSpace=wrap;html=1;" vertex="1" parent="1">
          <mxGeometry x="-30" y="330" width="160" height="210" as="geometry" />
        </mxCell>
        <mxCell id="f8OYZhYVLo2xJbFIZ8Po-15" value="-nameT : Text&lt;div&gt;-cognT : Text&lt;/div&gt;&lt;div&gt;-emailT : Text&lt;/div&gt;&lt;div&gt;-profilP : ImageView&lt;/div&gt;" style="text;strokeColor=none;fillColor=none;align=left;verticalAlign=top;spacingLeft=4;spacingRight=4;overflow=hidden;rotatable=0;points=[[0,0.5],[1,0.5]];portConstraint=eastwest;whiteSpace=wrap;html=1;" vertex="1" parent="f8OYZhYVLo2xJbFIZ8Po-14">
          <mxGeometry y="26" width="160" height="74" as="geometry" />
        </mxCell>
        <mxCell id="f8OYZhYVLo2xJbFIZ8Po-16" value="" style="line;strokeWidth=1;fillColor=none;align=left;verticalAlign=middle;spacingTop=-1;spacingLeft=3;spacingRight=3;rotatable=0;labelPosition=right;points=[];portConstraint=eastwest;strokeColor=inherit;" vertex="1" parent="f8OYZhYVLo2xJbFIZ8Po-14">
          <mxGeometry y="100" width="160" height="8" as="geometry" />
        </mxCell>
        <mxCell id="f8OYZhYVLo2xJbFIZ8Po-17" value="&lt;div&gt;+ modify()&lt;/div&gt;+ initialize()&lt;div&gt;+ logout()&lt;/div&gt;" style="text;strokeColor=none;fillColor=none;align=left;verticalAlign=top;spacingLeft=4;spacingRight=4;overflow=hidden;rotatable=0;points=[[0,0.5],[1,0.5]];portConstraint=eastwest;whiteSpace=wrap;html=1;" vertex="1" parent="f8OYZhYVLo2xJbFIZ8Po-14">
          <mxGeometry y="108" width="160" height="102" as="geometry" />
        </mxCell>
        <mxCell id="f8OYZhYVLo2xJbFIZ8Po-18" style="edgeStyle=none;rounded=0;orthogonalLoop=1;jettySize=auto;html=1;dashed=1;strokeColor=default;align=center;verticalAlign=middle;fontFamily=Helvetica;fontSize=11;fontColor=default;labelBackgroundColor=default;endArrow=open;endFill=0;startArrow=open;startFill=0;" edge="1" parent="1" source="f8OYZhYVLo2xJbFIZ8Po-19" target="f8OYZhYVLo2xJbFIZ8Po-1">
          <mxGeometry relative="1" as="geometry" />
        </mxCell>
        <mxCell id="f8OYZhYVLo2xJbFIZ8Po-19" value="LottiController" style="swimlane;fontStyle=1;align=center;verticalAlign=top;childLayout=stackLayout;horizontal=1;startSize=26;horizontalStack=0;resizeParent=1;resizeParentMax=0;resizeLast=0;collapsible=1;marginBottom=0;whiteSpace=wrap;html=1;" vertex="1" parent="1">
          <mxGeometry x="690" y="710" width="200" height="86" as="geometry" />
        </mxCell>
        <mxCell id="f8OYZhYVLo2xJbFIZ8Po-20" value="+ field: type" style="text;strokeColor=none;fillColor=none;align=left;verticalAlign=top;spacingLeft=4;spacingRight=4;overflow=hidden;rotatable=0;points=[[0,0.5],[1,0.5]];portConstraint=eastwest;whiteSpace=wrap;html=1;" vertex="1" parent="f8OYZhYVLo2xJbFIZ8Po-19">
          <mxGeometry y="26" width="200" height="26" as="geometry" />
        </mxCell>
        <mxCell id="f8OYZhYVLo2xJbFIZ8Po-21" value="" style="line;strokeWidth=1;fillColor=none;align=left;verticalAlign=middle;spacingTop=-1;spacingLeft=3;spacingRight=3;rotatable=0;labelPosition=right;points=[];portConstraint=eastwest;strokeColor=inherit;" vertex="1" parent="f8OYZhYVLo2xJbFIZ8Po-19">
          <mxGeometry y="52" width="200" height="8" as="geometry" />
        </mxCell>
        <mxCell id="f8OYZhYVLo2xJbFIZ8Po-22" value="+ method(type): type" style="text;strokeColor=none;fillColor=none;align=left;verticalAlign=top;spacingLeft=4;spacingRight=4;overflow=hidden;rotatable=0;points=[[0,0.5],[1,0.5]];portConstraint=eastwest;whiteSpace=wrap;html=1;" vertex="1" parent="f8OYZhYVLo2xJbFIZ8Po-19">
          <mxGeometry y="60" width="200" height="26" as="geometry" />
        </mxCell>
        <mxCell id="f8OYZhYVLo2xJbFIZ8Po-23" style="edgeStyle=none;rounded=0;orthogonalLoop=1;jettySize=auto;html=1;dashed=1;strokeColor=default;align=center;verticalAlign=middle;fontFamily=Helvetica;fontSize=11;fontColor=default;labelBackgroundColor=default;endArrow=open;endFill=0;startArrow=open;startFill=0;" edge="1" parent="1" source="f8OYZhYVLo2xJbFIZ8Po-24" target="f8OYZhYVLo2xJbFIZ8Po-1">
          <mxGeometry relative="1" as="geometry" />
        </mxCell>
        <mxCell id="f8OYZhYVLo2xJbFIZ8Po-24" value="ArticoloController" style="swimlane;fontStyle=1;align=center;verticalAlign=top;childLayout=stackLayout;horizontal=1;startSize=26;horizontalStack=0;resizeParent=1;resizeParentMax=0;resizeLast=0;collapsible=1;marginBottom=0;whiteSpace=wrap;html=1;" vertex="1" parent="1">
          <mxGeometry x="-50" y="710" width="200" height="86" as="geometry" />
        </mxCell>
        <mxCell id="f8OYZhYVLo2xJbFIZ8Po-25" value="+ field: type" style="text;strokeColor=none;fillColor=none;align=left;verticalAlign=top;spacingLeft=4;spacingRight=4;overflow=hidden;rotatable=0;points=[[0,0.5],[1,0.5]];portConstraint=eastwest;whiteSpace=wrap;html=1;" vertex="1" parent="f8OYZhYVLo2xJbFIZ8Po-24">
          <mxGeometry y="26" width="200" height="26" as="geometry" />
        </mxCell>
        <mxCell id="f8OYZhYVLo2xJbFIZ8Po-26" value="" style="line;strokeWidth=1;fillColor=none;align=left;verticalAlign=middle;spacingTop=-1;spacingLeft=3;spacingRight=3;rotatable=0;labelPosition=right;points=[];portConstraint=eastwest;strokeColor=inherit;" vertex="1" parent="f8OYZhYVLo2xJbFIZ8Po-24">
          <mxGeometry y="52" width="200" height="8" as="geometry" />
        </mxCell>
        <mxCell id="f8OYZhYVLo2xJbFIZ8Po-27" value="+ method(type): type" style="text;strokeColor=none;fillColor=none;align=left;verticalAlign=top;spacingLeft=4;spacingRight=4;overflow=hidden;rotatable=0;points=[[0,0.5],[1,0.5]];portConstraint=eastwest;whiteSpace=wrap;html=1;" vertex="1" parent="f8OYZhYVLo2xJbFIZ8Po-24">
          <mxGeometry y="60" width="200" height="26" as="geometry" />
        </mxCell>
        <mxCell id="f8OYZhYVLo2xJbFIZ8Po-28" style="edgeStyle=none;rounded=0;orthogonalLoop=1;jettySize=auto;html=1;dashed=1;strokeColor=default;align=center;verticalAlign=middle;fontFamily=Helvetica;fontSize=11;fontColor=default;labelBackgroundColor=default;endArrow=open;endFill=0;startArrow=open;startFill=0;" edge="1" parent="1" source="f8OYZhYVLo2xJbFIZ8Po-20" target="f8OYZhYVLo2xJbFIZ8Po-24">
          <mxGeometry relative="1" as="geometry" />
        </mxCell>
        <mxCell id="f8OYZhYVLo2xJbFIZ8Po-29" style="edgeStyle=none;rounded=0;orthogonalLoop=1;jettySize=auto;html=1;dashed=1;strokeColor=default;align=center;verticalAlign=middle;fontFamily=Helvetica;fontSize=11;fontColor=default;labelBackgroundColor=default;endArrow=open;endFill=0;startArrow=open;startFill=0;" edge="1" parent="1" source="f8OYZhYVLo2xJbFIZ8Po-24" target="f8OYZhYVLo2xJbFIZ8Po-14">
          <mxGeometry relative="1" as="geometry" />
        </mxCell>
        <mxCell id="f8OYZhYVLo2xJbFIZ8Po-30" style="edgeStyle=none;rounded=0;orthogonalLoop=1;jettySize=auto;html=1;dashed=1;strokeColor=default;align=center;verticalAlign=middle;fontFamily=Helvetica;fontSize=11;fontColor=default;labelBackgroundColor=default;endArrow=open;startArrow=open;startFill=0;endFill=0;" edge="1" parent="1" source="f8OYZhYVLo2xJbFIZ8Po-31" target="f8OYZhYVLo2xJbFIZ8Po-19">
          <mxGeometry relative="1" as="geometry" />
        </mxCell>
        <mxCell id="f8OYZhYVLo2xJbFIZ8Po-31" value="AstaController" style="swimlane;fontStyle=1;align=center;verticalAlign=top;childLayout=stackLayout;horizontal=1;startSize=26;horizontalStack=0;resizeParent=1;resizeParentMax=0;resizeLast=0;collapsible=1;marginBottom=0;whiteSpace=wrap;html=1;fontFamily=Helvetica;fontSize=11;fontColor=default;labelBackgroundColor=default;" vertex="1" parent="1">
          <mxGeometry x="710" y="400" width="160" height="86" as="geometry" />
        </mxCell>
        <mxCell id="f8OYZhYVLo2xJbFIZ8Po-32" value="+ field: type" style="text;strokeColor=none;fillColor=none;align=left;verticalAlign=top;spacingLeft=4;spacingRight=4;overflow=hidden;rotatable=0;points=[[0,0.5],[1,0.5]];portConstraint=eastwest;whiteSpace=wrap;html=1;fontFamily=Helvetica;fontSize=11;fontColor=default;labelBackgroundColor=default;" vertex="1" parent="f8OYZhYVLo2xJbFIZ8Po-31">
          <mxGeometry y="26" width="160" height="26" as="geometry" />
        </mxCell>
        <mxCell id="f8OYZhYVLo2xJbFIZ8Po-33" value="" style="line;strokeWidth=1;fillColor=none;align=left;verticalAlign=middle;spacingTop=-1;spacingLeft=3;spacingRight=3;rotatable=0;labelPosition=right;points=[];portConstraint=eastwest;strokeColor=inherit;fontFamily=Helvetica;fontSize=11;fontColor=default;labelBackgroundColor=default;" vertex="1" parent="f8OYZhYVLo2xJbFIZ8Po-31">
          <mxGeometry y="52" width="160" height="8" as="geometry" />
        </mxCell>
        <mxCell id="f8OYZhYVLo2xJbFIZ8Po-34" value="+ method(type): type" style="text;strokeColor=none;fillColor=none;align=left;verticalAlign=top;spacingLeft=4;spacingRight=4;overflow=hidden;rotatable=0;points=[[0,0.5],[1,0.5]];portConstraint=eastwest;whiteSpace=wrap;html=1;fontFamily=Helvetica;fontSize=11;fontColor=default;labelBackgroundColor=default;" vertex="1" parent="f8OYZhYVLo2xJbFIZ8Po-31">
          <mxGeometry y="60" width="160" height="26" as="geometry" />
        </mxCell>
        <mxCell id="f8OYZhYVLo2xJbFIZ8Po-35" style="edgeStyle=none;rounded=0;orthogonalLoop=1;jettySize=auto;html=1;dashed=1;strokeColor=default;align=center;verticalAlign=middle;fontFamily=Helvetica;fontSize=11;fontColor=default;labelBackgroundColor=default;endArrow=open;startArrow=open;startFill=0;endSize=7;endFill=0;" edge="1" parent="1" source="f8OYZhYVLo2xJbFIZ8Po-1" target="f8OYZhYVLo2xJbFIZ8Po-31">
          <mxGeometry relative="1" as="geometry">
            <mxPoint x="780" y="440" as="targetPoint" />
          </mxGeometry>
        </mxCell>
        <mxCell id="f8OYZhYVLo2xJbFIZ8Po-36" style="edgeStyle=none;rounded=0;orthogonalLoop=1;jettySize=auto;html=1;dashed=1;strokeColor=default;align=center;verticalAlign=middle;fontFamily=Helvetica;fontSize=11;fontColor=default;labelBackgroundColor=default;startArrow=open;startFill=0;endArrow=open;endFill=0;" edge="1" parent="1" source="f8OYZhYVLo2xJbFIZ8Po-37" target="f8OYZhYVLo2xJbFIZ8Po-19">
          <mxGeometry relative="1" as="geometry" />
        </mxCell>
        <mxCell id="f8OYZhYVLo2xJbFIZ8Po-37" value="AddLottiController" style="swimlane;fontStyle=1;align=center;verticalAlign=top;childLayout=stackLayout;horizontal=1;startSize=26;horizontalStack=0;resizeParent=1;resizeParentMax=0;resizeLast=0;collapsible=1;marginBottom=0;whiteSpace=wrap;html=1;fontFamily=Helvetica;fontSize=11;fontColor=default;labelBackgroundColor=default;" vertex="1" parent="1">
          <mxGeometry x="710" y="840" width="160" height="86" as="geometry" />
        </mxCell>
        <mxCell id="f8OYZhYVLo2xJbFIZ8Po-38" value="+ field: type" style="text;strokeColor=none;fillColor=none;align=left;verticalAlign=top;spacingLeft=4;spacingRight=4;overflow=hidden;rotatable=0;points=[[0,0.5],[1,0.5]];portConstraint=eastwest;whiteSpace=wrap;html=1;fontFamily=Helvetica;fontSize=11;fontColor=default;labelBackgroundColor=default;" vertex="1" parent="f8OYZhYVLo2xJbFIZ8Po-37">
          <mxGeometry y="26" width="160" height="26" as="geometry" />
        </mxCell>
        <mxCell id="f8OYZhYVLo2xJbFIZ8Po-39" value="" style="line;strokeWidth=1;fillColor=none;align=left;verticalAlign=middle;spacingTop=-1;spacingLeft=3;spacingRight=3;rotatable=0;labelPosition=right;points=[];portConstraint=eastwest;strokeColor=inherit;fontFamily=Helvetica;fontSize=11;fontColor=default;labelBackgroundColor=default;" vertex="1" parent="f8OYZhYVLo2xJbFIZ8Po-37">
          <mxGeometry y="52" width="160" height="8" as="geometry" />
        </mxCell>
        <mxCell id="f8OYZhYVLo2xJbFIZ8Po-40" value="+ method(type): type" style="text;strokeColor=none;fillColor=none;align=left;verticalAlign=top;spacingLeft=4;spacingRight=4;overflow=hidden;rotatable=0;points=[[0,0.5],[1,0.5]];portConstraint=eastwest;whiteSpace=wrap;html=1;fontFamily=Helvetica;fontSize=11;fontColor=default;labelBackgroundColor=default;" vertex="1" parent="f8OYZhYVLo2xJbFIZ8Po-37">
          <mxGeometry y="60" width="160" height="26" as="geometry" />
        </mxCell>
        <mxCell id="f8OYZhYVLo2xJbFIZ8Po-41" style="edgeStyle=none;rounded=0;orthogonalLoop=1;jettySize=auto;html=1;dashed=1;strokeColor=default;align=center;verticalAlign=middle;fontFamily=Helvetica;fontSize=11;fontColor=default;labelBackgroundColor=default;startArrow=open;startFill=0;endArrow=open;endFill=0;" edge="1" parent="1" source="f8OYZhYVLo2xJbFIZ8Po-42" target="f8OYZhYVLo2xJbFIZ8Po-31">
          <mxGeometry relative="1" as="geometry" />
        </mxCell>
        <mxCell id="f8OYZhYVLo2xJbFIZ8Po-42" value="AddArticoloController" style="swimlane;fontStyle=1;align=center;verticalAlign=top;childLayout=stackLayout;horizontal=1;startSize=26;horizontalStack=0;resizeParent=1;resizeParentMax=0;resizeLast=0;collapsible=1;marginBottom=0;whiteSpace=wrap;html=1;fontFamily=Helvetica;fontSize=11;fontColor=default;labelBackgroundColor=default;" vertex="1" parent="1">
          <mxGeometry x="950" y="392" width="160" height="86" as="geometry" />
        </mxCell>
        <mxCell id="f8OYZhYVLo2xJbFIZ8Po-43" value="+ field: type" style="text;strokeColor=none;fillColor=none;align=left;verticalAlign=top;spacingLeft=4;spacingRight=4;overflow=hidden;rotatable=0;points=[[0,0.5],[1,0.5]];portConstraint=eastwest;whiteSpace=wrap;html=1;fontFamily=Helvetica;fontSize=11;fontColor=default;labelBackgroundColor=default;" vertex="1" parent="f8OYZhYVLo2xJbFIZ8Po-42">
          <mxGeometry y="26" width="160" height="26" as="geometry" />
        </mxCell>
        <mxCell id="f8OYZhYVLo2xJbFIZ8Po-44" value="" style="line;strokeWidth=1;fillColor=none;align=left;verticalAlign=middle;spacingTop=-1;spacingLeft=3;spacingRight=3;rotatable=0;labelPosition=right;points=[];portConstraint=eastwest;strokeColor=inherit;fontFamily=Helvetica;fontSize=11;fontColor=default;labelBackgroundColor=default;" vertex="1" parent="f8OYZhYVLo2xJbFIZ8Po-42">
          <mxGeometry y="52" width="160" height="8" as="geometry" />
        </mxCell>
        <mxCell id="f8OYZhYVLo2xJbFIZ8Po-45" value="+ method(type): type" style="text;strokeColor=none;fillColor=none;align=left;verticalAlign=top;spacingLeft=4;spacingRight=4;overflow=hidden;rotatable=0;points=[[0,0.5],[1,0.5]];portConstraint=eastwest;whiteSpace=wrap;html=1;fontFamily=Helvetica;fontSize=11;fontColor=default;labelBackgroundColor=default;" vertex="1" parent="f8OYZhYVLo2xJbFIZ8Po-42">
          <mxGeometry y="60" width="160" height="26" as="geometry" />
        </mxCell>
      </root>
    </mxGraphModel>
  </diagram>
</mxfile>
